<svg xmlns="http://www.w3.org/2000/svg" width="520" height="480" viewBox="0 0 520 480">
<path d="M0,-81 q130.0,-150 260.0,0 t260.0,0 M0,-75 q130.0,-150 260.0,0 t260.0,0 M0,-69 q130.0,-150 260.0,0 t260.0,0 M0,-63 q130.0,-150 260.0,0 t260.0,0 M0,-57 q130.0,-150 260.0,0 t260.0,0 M0,-51 q130.0,-150 260.0,0 t260.0,0 M0,-45 q130.0,-150 260.0,0 t260.0,0 M0,-39 q130.0,-150 260.0,0 t260.0,0 M0,-33 q130.0,-150 260.0,0 t260.0,0 M0,-27 q130.0,-150 260.0,0 t260.0,0 M0,-21 q130.0,-150 260.0,0 t260.0,0 M0,-15 q130.0,-150 260.0,0 t260.0,0 M0,-9 q130.0,-150 260.0,0 t260.0,0 M0,-3 q130.0,-150 260.0,0 t260.0,0 M0,3 q130.0,-150 260.0,0 t260.0,0 M0,9 q130.0,-150 260.0,0 t260.0,0 M0,15 q130.0,-150 260.0,0 t260.0,0 M0,21 q130.0,-150 260.0,0 t260.0,0 M0,27 q130.0,-150 260.0,0 t260.0,0 M0,33 q130.0,-150 260.0,0 t260.0,0 M0,39 q130.0,-150 260.0,0 t260.0,0 M0,45 q130.0,-150 260.0,0 t260.0,0 M0,51 q130.0,-150 260.0,0 t260.0,0 M0,57 q130.0,-150 260.0,0 t260.0,0 M0,63 q130.0,-150 260.0,0 t260.0,0 M0,69 q130.0,-150 260.0,0 t260.0,0 M0,75 q130.0,-150 260.0,0 t260.0,0 M0,81 q130.0,-150 260.0,0 t260.0,0 M0,87 q130.0,-150 260.0,0 t260.0,0 M0,93 q130.0,-150 260.0,0 t260.0,0 M0,99 q130.0,-150 260.0,0 t260.0,0 M0,105 q130.0,-150 260.0,0 t260.0,0 M0,111 q130.0,-150 260.0,0 t260.0,0 M0,117 q130.0,-150 260.0,0 t260.0,0 M0,123 q130.0,-150 260.0,0 t260.0,0 M0,129 q130.0,-150 260.0,0 t260.0,0 M0,135 q130.0,-150 260.0,0 t260.0,0 M0,141 q130.0,-150 260.0,0 t260.0,0 M0,147 q130.0,-150 260.0,0 t260.0,0 M0,153 q130.0,-150 260.0,0 t260.0,0 M0,159 q130.0,-150 260.0,0 t260.0,0 M0,165 q130.0,-150 260.0,0 t260.0,0 M0,171 q130.0,-150 260.0,0 t260.0,0 M0,177 q130.0,-150 260.0,0 t260.0,0 M0,183 q130.0,-150 260.0,0 t260.0,0 M0,189 q130.0,-150 260.0,0 t260.0,0 M0,195 q130.0,-150 260.0,0 t260.0,0 M0,201 q130.0,-150 260.0,0 t260.0,0 M0,207 q130.0,-150 260.0,0 t260.0,0 M0,213 q130.0,-150 260.0,0 t260.0,0 M0,219 q130.0,-150 260.0,0 t260.0,0 M0,225 q130.0,-150 260.0,0 t260.0,0 M0,231 q130.0,-150 260.0,0 t260.0,0 M0,237 q130.0,-150 260.0,0 t260.0,0 M0,243 q130.0,-150 260.0,0 t260.0,0 M0,249 q130.0,-150 260.0,0 t260.0,0 M0,255 q130.0,-150 260.0,0 t260.0,0 M0,261 q130.0,-150 260.0,0 t260.0,0 M0,267 q130.0,-150 260.0,0 t260.0,0 M0,273 q130.0,-150 260.0,0 t260.0,0 M0,279 q130.0,-150 260.0,0 t260.0,0 M0,285 q130.0,-150 260.0,0 t260.0,0 M0,291 q130.0,-150 260.0,0 t260.0,0 M0,297 q130.0,-150 260.0,0 t260.0,0 M0,303 q130.0,-150 260.0,0 t260.0,0 M0,309 q130.0,-150 260.0,0 t260.0,0 M0,315 q130.0,-150 260.0,0 t260.0,0 M0,321 q130.0,-150 260.0,0 t260.0,0 M0,327 q130.0,-150 260.0,0 t260.0,0 M0,333 q130.0,-150 260.0,0 t260.0,0 M0,339 q130.0,-150 260.0,0 t260.0,0 M0,345 q130.0,-150 260.0,0 t260.0,0 M0,351 q130.0,-150 260.0,0 t260.0,0 M0,357 q130.0,-150 260.0,0 t260.0,0 M0,363 q130.0,-150 260.0,0 t260.0,0 M0,369 q130.0,-150 260.0,0 t260.0,0 M0,375 q130.0,-150 260.0,0 t260.0,0 M0,381 q130.0,-150 260.0,0 t260.0,0 M0,387 q130.0,-150 260.0,0 t260.0,0 M0,393 q130.0,-150 260.0,0 t260.0,0 M0,399 q130.0,-150 260.0,0 t260.0,0 M0,405 q130.0,-150 260.0,0 t260.0,0 M0,411 q130.0,-150 260.0,0 t260.0,0 M0,417 q130.0,-150 260.0,0 t260.0,0 M0,423 q130.0,-150 260.0,0 t260.0,0 M0,429 q130.0,-150 260.0,0 t260.0,0 M0,435 q130.0,-150 260.0,0 t260.0,0 M0,441 q130.0,-150 260.0,0 t260.0,0 M0,447 q130.0,-150 260.0,0 t260.0,0 M0,453 q130.0,-150 260.0,0 t260.0,0 M0,459 q130.0,-150 260.0,0 t260.0,0 M0,465 q130.0,-150 260.0,0 t260.0,0 M0,471 q130.0,-150 260.0,0 t260.0,0 M0,477 q130.0,-150 260.0,0 t260.0,0 M0,483 q130.0,-150 260.0,0 t260.0,0 M0,489 q130.0,-150 260.0,0 t260.0,0 M0,495 q130.0,-150 260.0,0 t260.0,0 M0,501 q130.0,-150 260.0,0 t260.0,0 M0,507 q130.0,-150 260.0,0 t260.0,0 M0,513 q130.0,-150 260.0,0 t260.0,0 M0,519 q130.0,-150 260.0,0 t260.0,0 M0,525 q130.0,-150 260.0,0 t260.0,0 M0,531 q130.0,-150 260.0,0 t260.0,0 M0,537 q130.0,-150 260.0,0 t260.0,0 M0,543 q130.0,-150 260.0,0 t260.0,0 M0,549 q130.0,-150 260.0,0 t260.0,0 M0,555 q130.0,-150 260.0,0 t260.0,0 M0,561 q130.0,-150 260.0,0 t260.0,0" fill="none" stroke="#9c6b2f" stroke-width="0.8"/>
</svg>
